# This file uses centimeters as units for non-parametric coordinates.

mtllib Collum1.mtl
g default
v 0.707107 -5.000000 -0.707107
v 0.000000 -5.000000 -1.000000
v -0.707107 -5.000000 -0.707107
v -1.000000 -5.000000 0.000000
v -0.707107 -5.000000 0.707107
v 0.000000 -5.000000 1.000000
v 0.707107 -5.000000 0.707107
v 1.000000 -5.000000 0.000000
v 0.707107 5.000000 -0.707107
v 0.000000 5.000000 -1.000000
v -0.707107 5.000000 -0.707107
v -1.000000 5.000000 0.000000
v -0.707107 5.000000 0.707107
v 0.000000 5.000000 1.000000
v 0.707107 5.000000 0.707107
v 1.000000 5.000000 0.000000
v 1.060660 -5.500000 -1.060660
v 0.000000 -5.500000 -1.500000
v -1.060660 -5.500000 -1.060660
v -1.500000 -5.500000 0.000000
v -1.060660 -5.500000 1.060660
v 0.000000 -5.500000 1.500000
v 1.060660 -5.500000 1.060660
v 1.500000 -5.500000 0.000000
v 1.060660 -5.000000 -1.060660
v 0.000000 -5.000000 -1.500000
v -1.060660 -5.000000 -1.060660
v -1.500000 -5.000000 0.000000
v -1.060660 -5.000000 1.060660
v 0.000000 -5.000000 1.500000
v 1.060660 -5.000000 1.060660
v 1.500000 -5.000000 0.000000
v -1.650000 -6.000000 1.650000
v 1.650000 -6.000000 1.650000
v -1.650000 -5.500000 1.650000
v 1.650000 -5.500000 1.650000
v -1.650000 -5.500000 -1.650000
v 1.650000 -5.500000 -1.650000
v -1.650000 -6.000000 -1.650000
v 1.650000 -6.000000 -1.650000
v 0.000000 -5.500000 1.650000
v 1.650000 -5.500000 0.000000
v 0.000000 -5.500000 -1.650000
v -1.650000 -5.500000 0.000000
vt 0.115323 0.001886
vt 0.173889 0.001886
vt 0.173889 0.776372
vt 0.115323 0.776372
vt 0.232357 0.001886
vt 0.232357 0.776372
vt 0.349294 0.001886
vt 0.407763 0.001886
vt 0.407763 0.776372
vt 0.349294 0.776372
vt 0.462527 0.001886
vt 0.462527 0.776372
vt 0.414227 0.944657
vt 0.414227 0.862510
vt 0.452951 0.862510
vt 0.452951 0.944657
vt 0.414227 0.780364
vt 0.452951 0.780364
vt 0.324508 0.944657
vt 0.324508 0.862510
vt 0.363232 0.862510
vt 0.363232 0.944657
vt 0.324508 0.780364
vt 0.363232 0.780364
vt 0.826594 0.257466
vt 0.826594 0.001886
vt 0.865318 0.001886
vt 0.865318 0.129676
vt 0.865318 0.257466
vt 0.873369 0.257466
vt 0.873369 0.001886
vt 0.912093 0.001886
vt 0.912093 0.129676
vt 0.912093 0.257466
vt 0.620119 0.455079
vt 0.674884 0.432395
vt 0.702266 0.459777
vt 0.620119 0.493804
vt 0.697568 0.377631
vt 0.736292 0.377631
vt 0.565355 0.432395
vt 0.537972 0.459777
vt 0.674884 0.322866
vt 0.702266 0.295484
vt 0.542670 0.377631
vt 0.503946 0.377631
vt 0.620119 0.300182
vt 0.620119 0.261458
vt 0.565355 0.322866
vt 0.537972 0.295484
vt 0.563485 0.001886
vt 0.819066 0.001886
vt 0.819066 0.257466
vt 0.563485 0.257466
vt 0.788071 0.307101
vt 0.754045 0.389248
vt 0.742427 0.389248
vt 0.742427 0.261458
vt 0.788071 0.471395
vt 0.742427 0.517038
vt 0.870218 0.273075
vt 0.870218 0.261458
vt 0.870218 0.505421
vt 0.870218 0.517038
vt 0.952364 0.307101
vt 0.998008 0.261458
vt 0.952364 0.471395
vt 0.998008 0.517038
vt 0.986391 0.389248
vt 0.998008 0.389248
vt 0.295688 0.912577
vt 0.240924 0.935261
vt 0.186159 0.912577
vt 0.163475 0.857812
vt 0.186159 0.803048
vt 0.240924 0.780364
vt 0.295688 0.803048
vt 0.318372 0.857812
vt 0.001992 0.001886
vt 0.056757 0.001886
vt 0.056757 0.776372
vt 0.001992 0.776372
vt 0.290826 0.001886
vt 0.290826 0.776372
vt 0.497811 0.780364
vt 0.497811 0.862510
vt 0.459087 0.862510
vt 0.459087 0.780364
vt 0.497811 0.944657
vt 0.459087 0.944657
vt 0.369367 0.944657
vt 0.369367 0.862510
vt 0.408092 0.862510
vt 0.408092 0.944657
vt 0.369367 0.780364
vt 0.408092 0.780364
vt 0.469935 0.257466
vt 0.469935 0.001886
vt 0.508660 0.001886
vt 0.508660 0.129676
vt 0.508660 0.257466
vt 0.516710 0.257466
vt 0.516710 0.129676
vt 0.516710 0.001886
vt 0.555435 0.001886
vt 0.555435 0.257466
vn 0.382683 0.000000 -0.923880
vn 0.382683 0.000000 -0.923880
vn 0.382683 0.000000 -0.923880
vn 0.382683 0.000000 -0.923880
vn -0.382683 0.000000 -0.923880
vn -0.382683 0.000000 -0.923880
vn -0.382683 0.000000 -0.923880
vn -0.382683 0.000000 -0.923880
vn -0.923880 0.000000 -0.382683
vn -0.923880 0.000000 -0.382683
vn -0.923880 0.000000 -0.382683
vn -0.923880 0.000000 -0.382683
vn -0.923880 0.000000 0.382683
vn -0.923880 0.000000 0.382683
vn -0.923880 0.000000 0.382683
vn -0.923880 0.000000 0.382683
vn -0.382683 0.000000 0.923880
vn -0.382683 0.000000 0.923880
vn -0.382683 0.000000 0.923880
vn -0.382683 0.000000 0.923880
vn 0.382683 0.000000 0.923880
vn 0.382683 0.000000 0.923880
vn 0.382683 0.000000 0.923880
vn 0.382683 0.000000 0.923880
vn 0.923880 0.000000 0.382683
vn 0.923880 0.000000 0.382683
vn 0.923880 0.000000 0.382683
vn 0.923880 0.000000 0.382683
vn 0.923880 0.000000 -0.382683
vn 0.923880 0.000000 -0.382683
vn 0.923880 0.000000 -0.382683
vn 0.923880 0.000000 -0.382683
vn 0.382684 0.000000 -0.923880
vn 0.382684 0.000000 -0.923880
vn 0.382684 0.000000 -0.923880
vn 0.382684 0.000000 -0.923880
vn -0.382684 0.000000 -0.923880
vn -0.382684 0.000000 -0.923880
vn -0.382684 0.000000 -0.923880
vn -0.382684 0.000000 -0.923880
vn -0.923880 0.000000 -0.382683
vn -0.923880 0.000000 -0.382683
vn -0.923880 0.000000 -0.382683
vn -0.923880 0.000000 -0.382683
vn -0.923880 0.000000 0.382683
vn -0.923880 0.000000 0.382683
vn -0.923880 0.000000 0.382683
vn -0.923880 0.000000 0.382683
vn -0.382684 0.000000 0.923880
vn -0.382684 0.000000 0.923880
vn -0.382684 0.000000 0.923880
vn -0.382684 0.000000 0.923880
vn 0.382684 0.000000 0.923880
vn 0.382684 0.000000 0.923880
vn 0.382684 0.000000 0.923880
vn 0.382684 0.000000 0.923880
vn 0.923880 0.000000 0.382683
vn 0.923880 0.000000 0.382683
vn 0.923880 0.000000 0.382683
vn 0.923880 0.000000 0.382683
vn 0.923880 0.000000 -0.382683
vn 0.923880 0.000000 -0.382683
vn 0.923880 0.000000 -0.382683
vn 0.923880 0.000000 -0.382683
vn 0.000000 1.000000 0.000000
vn 0.000000 1.000000 0.000000
vn 0.000000 1.000000 0.000000
vn 0.000000 1.000000 0.000000
vn 0.000000 1.000000 0.000001
vn 0.000000 1.000000 0.000001
vn 0.000000 1.000000 0.000001
vn 0.000000 1.000000 0.000001
vn 0.000000 1.000000 -0.000001
vn 0.000000 1.000000 -0.000001
vn 0.000000 1.000000 -0.000001
vn 0.000000 1.000000 -0.000001
vn 0.000000 1.000000 0.000001
vn 0.000000 1.000000 0.000001
vn 0.000000 1.000000 0.000001
vn 0.000000 1.000000 0.000001
vn 0.000000 1.000000 0.000000
vn 0.000000 1.000000 0.000000
vn 0.000000 1.000000 0.000000
vn 0.000000 1.000000 0.000000
vn 0.000000 1.000000 -0.000001
vn 0.000000 1.000000 -0.000001
vn 0.000000 1.000000 -0.000001
vn 0.000000 1.000000 -0.000001
vn 0.000000 1.000000 0.000001
vn 0.000000 1.000000 0.000001
vn 0.000000 1.000000 0.000001
vn 0.000000 1.000000 0.000001
vn 0.000000 1.000000 -0.000001
vn 0.000000 1.000000 -0.000001
vn 0.000000 1.000000 -0.000001
vn 0.000000 1.000000 -0.000001
vn 0.000000 0.000000 1.000000
vn 0.000000 0.000000 1.000000
vn 0.000000 0.000000 1.000000
vn 0.000000 0.000000 1.000000
vn 0.000000 0.000000 1.000000
vn 0.000000 0.000000 -1.000000
vn 0.000000 0.000000 -1.000000
vn 0.000000 0.000000 -1.000000
vn 0.000000 0.000000 -1.000000
vn 0.000000 0.000000 -1.000000
vn 0.000000 -1.000000 0.000000
vn 0.000000 -1.000000 0.000000
vn 0.000000 -1.000000 0.000000
vn 0.000000 -1.000000 0.000000
vn 1.000000 0.000000 0.000000
vn 1.000000 0.000000 0.000000
vn 1.000000 0.000000 0.000000
vn 1.000000 0.000000 0.000000
vn 1.000000 0.000000 0.000000
vn -1.000000 0.000000 0.000000
vn -1.000000 0.000000 0.000000
vn -1.000000 0.000000 0.000000
vn -1.000000 0.000000 0.000000
vn -1.000000 0.000000 0.000000
vn 0.000000 1.000000 0.000000
vn 0.000000 1.000000 0.000000
vn 0.000000 1.000000 0.000000
vn 0.000000 1.000000 0.000000
vn 0.000000 1.000000 0.000000
vn 0.000000 1.000000 0.000000
vn 0.000000 1.000000 0.000000
vn 0.000000 1.000000 0.000000
vn 0.000000 1.000000 0.000000
vn 0.000000 1.000000 0.000000
vn 0.000000 1.000000 0.000000
vn 0.000000 1.000000 0.000000
vn 0.000000 1.000000 0.000000
vn 0.000000 1.000000 0.000000
vn 0.000000 1.000000 0.000000
vn 0.000000 1.000000 0.000000
vn 0.000000 1.000000 0.000000
vn 0.000000 1.000000 0.000000
vn 0.000000 1.000000 0.000000
vn 0.000000 1.000000 0.000000
vn 0.000000 1.000000 -0.000000
vn 0.000000 1.000000 -0.000000
vn 0.000000 1.000000 -0.000000
vn 0.000000 1.000000 -0.000000
vn 0.000000 1.000000 0.000000
vn 0.000000 1.000000 0.000000
vn 0.000000 1.000000 0.000000
vn 0.000000 1.000000 0.000000
vn 0.000000 1.000000 0.000000
vn 0.000000 1.000000 0.000000
vn 0.000000 1.000000 0.000000
vn 0.000000 1.000000 0.000000
vn 0.000000 1.000000 -0.000000
vn 0.000000 1.000000 -0.000000
vn 0.000000 1.000000 -0.000000
vn 0.000000 1.000000 -0.000000
vn 0.000000 1.000000 -0.000000
vn 0.000000 1.000000 -0.000000
vn 0.000000 1.000000 -0.000000
vn 0.000000 1.000000 -0.000000
s off
g Collum2:pCylinder7
usemtl Collum2:initialShadingGroup
f 1/79/1 2/80/2 10/81/3 9/82/4
f 2/80/5 3/1/6 11/4/7 10/81/8
f 3/1/9 4/2/10 12/3/11 11/4/12
f 4/2/13 5/5/14 13/6/15 12/3/16
f 5/5/17 6/83/18 14/84/19 13/6/20
f 6/83/21 7/7/22 15/10/23 14/84/24
f 7/7/25 8/8/26 16/9/27 15/10/28
f 8/8/29 1/11/30 9/12/31 16/9/32
f 17/85/33 18/86/34 26/87/35 25/88/36
f 18/86/37 19/89/38 27/90/39 26/87/40
f 19/13/41 20/14/42 28/15/43 27/16/44
f 20/14/45 21/17/46 29/18/47 28/15/48
f 21/91/49 22/92/50 30/93/51 29/94/52
f 22/92/53 23/95/54 31/96/55 30/93/56
f 23/19/57 24/20/58 32/21/59 31/22/60
f 24/20/61 17/23/62 25/24/63 32/21/64
f 2/35/65 1/36/66 25/37/67 26/38/68
f 3/41/69 2/35/70 26/38/71 27/42/72
f 4/45/73 3/41/74 27/42/75 28/46/76
f 5/49/77 4/45/78 28/46/79 29/50/80
f 6/47/81 5/49/82 29/50/83 30/48/84
f 7/43/85 6/47/86 30/48/87 31/44/88
f 8/39/89 7/43/90 31/44/91 32/40/92
f 1/36/93 8/39/94 32/40/95 25/37/96
usemtl initialShadingGroup
f 33/97/97 34/98/98 36/99/99 41/100/100 35/101/101
f 37/102/102 43/103/103 38/104/104 40/105/105 39/106/106
f 39/51/107 40/52/108 34/53/109 33/54/110
f 34/25/111 40/26/112 38/27/113 42/28/114 36/29/115
f 39/30/116 33/31/117 35/32/118 44/33/119 37/34/120
usemtl Collum2:initialShadingGroup initialShadingGroup
f 21/55/121 20/56/122 44/57/123 35/58/124
f 20/56/125 19/59/126 37/60/127 44/57/128
f 19/59/129 18/63/130 43/64/131 37/60/132
f 18/63/133 17/67/134 38/68/135 43/64/136
f 17/67/137 24/69/138 42/70/139 38/68/140
f 24/69/141 23/65/142 36/66/143 42/70/144
f 23/65/145 22/61/146 41/62/147 36/66/148
f 22/61/149 21/55/150 35/58/151 41/62/152
usemtl initialShadingGroup
f 9/71/153 10/72/154 11/73/155 12/74/156 13/75/157 14/76/158 15/77/159 16/78/160
