# This file uses centimeters as units for non-parametric coordinates.

mtllib Obalisk.mtl
g default
v -1.167217 -4.850000 1.167217
v 1.167217 -4.850000 1.167217
v -0.527551 5.000000 0.527551
v 0.527551 5.000000 0.527551
v -0.527551 5.000000 -0.527551
v 0.527551 5.000000 -0.527551
v -1.167217 -4.850000 -1.167217
v 1.167217 -4.850000 -1.167217
v -1.887831 -7.150001 1.887831
v 1.887831 -7.150001 1.887831
v -1.350000 -4.850000 1.350000
v 1.350000 -4.850000 1.350000
v -1.350000 -4.850000 -1.350000
v 1.350000 -4.850000 -1.350000
v -1.887831 -7.150001 -1.887831
v 1.887831 -7.150001 -1.887831
v -0.527551 5.000000 0.527551
v 0.527551 5.000000 0.527551
v 0.527551 5.000000 -0.527551
v -0.527551 5.000000 -0.527551
v 0.000000 6.094578 0.000000
vt 0.305229 0.684129
vt 0.266398 0.154815
vt 0.391650 0.153749
vt 0.375515 0.683530
vt 0.374992 0.692710
vt 0.304109 0.693235
vt 0.741055 0.684129
vt 0.702225 0.154815
vt 0.827477 0.153749
vt 0.811341 0.683530
vt 0.810818 0.692710
vt 0.739935 0.693235
vt 0.435826 0.000000
vt 0.651655 0.000000
vt 0.620911 0.135022
vt 0.466570 0.135022
vt 0.402946 0.134930
vt 0.248711 0.134930
vt 0.217987 0.000000
vt 0.433670 0.000000
vt 0.215481 0.782348
vt 0.215481 0.997829
vt 0.000000 0.997829
vt 0.000000 0.782348
vt 0.000000 0.000000
vt 0.215829 0.000000
vt 0.185085 0.135022
vt 0.030744 0.135022
vt 0.653814 0.000000
vt 0.869496 0.000000
vt 0.838773 0.134930
vt 0.684537 0.134930
vt 0.609607 0.153853
vt 0.484270 0.154921
vt 0.173781 0.153853
vt 0.048444 0.154921
vt 0.579776 0.684112
vt 0.579955 0.693199
vt 0.510340 0.694568
vt 0.509569 0.685415
vt 0.143950 0.684112
vt 0.144128 0.693199
vt 0.074513 0.694568
vt 0.073743 0.685415
vt 0.546724 0.774054
vt 0.110897 0.774053
vt 0.340155 0.774602
vt 0.775982 0.774602
vn -0.577350 -0.577350 -0.577350
vn 0.000000 0.064804 -0.997898
vn 0.000000 0.064804 -0.997898
vn -0.577350 -0.577350 -0.577350
vn -0.577350 -0.577350 -0.577350
vn -0.577350 -0.577350 -0.577350
vn -0.577350 -0.577350 -0.577350
vn -0.997898 0.064804 0.000000
vn -0.997898 0.064804 0.000000
vn -0.577350 -0.577350 -0.577350
vn -0.577350 -0.577350 -0.577350
vn -0.577350 -0.577350 -0.577350
vn 0.000000 0.227697 0.973732
vn 0.000000 0.227697 0.973732
vn 0.000000 0.227697 0.973732
vn 0.000000 0.227697 0.973732
vn 0.000000 0.227697 -0.973732
vn 0.000000 0.227697 -0.973732
vn 0.000000 0.227697 -0.973732
vn 0.000000 0.227697 -0.973732
vn 0.000000 -1.000000 0.000000
vn 0.000000 -1.000000 0.000000
vn 0.000000 -1.000000 0.000000
vn 0.000000 -1.000000 0.000000
vn 0.973732 0.227697 0.000000
vn 0.973732 0.227697 0.000000
vn 0.973732 0.227697 0.000000
vn 0.973732 0.227697 0.000000
vn -0.973732 0.227697 0.000000
vn -0.973732 0.227697 0.000000
vn -0.973732 0.227697 0.000000
vn -0.973732 0.227697 0.000000
vn 0.000000 1.000000 0.000000
vn 0.000000 1.000000 0.000000
vn 0.000000 1.000000 0.000000
vn 0.000000 1.000000 0.000000
vn 0.000000 1.000000 0.000000
vn 0.000000 1.000000 0.000000
vn 0.000000 1.000000 0.000000
vn 0.000000 1.000000 0.000000
vn 0.000000 1.000000 0.000000
vn 0.000000 1.000000 0.000000
vn 0.000000 1.000000 0.000000
vn 0.000000 1.000000 0.000000
vn 0.000000 1.000000 0.000000
vn 0.000000 1.000000 0.000000
vn 0.000000 1.000000 0.000000
vn 0.000000 1.000000 0.000000
vn -0.577350 -0.577350 -0.577350
vn -0.577350 -0.577350 -0.577350
vn -0.577350 -0.577350 -0.577350
vn -0.577350 -0.577350 -0.577350
vn 0.000000 0.064804 0.997898
vn 0.000000 0.064804 0.997898
vn -0.577350 -0.577350 -0.577350
vn -0.577350 -0.577350 -0.577350
vn -0.577350 -0.577350 -0.577350
vn -0.577350 -0.577350 -0.577350
vn 0.997898 0.064804 0.000000
vn 0.997898 0.064804 0.000000
vn 0.000000 0.434171 0.900831
vn 0.000000 0.434171 0.900831
vn 0.000000 0.434171 0.900831
vn 0.900831 0.434171 0.000000
vn 0.900831 0.434171 0.000000
vn 0.900831 0.434171 0.000000
vn 0.000000 0.434171 -0.900831
vn 0.000000 0.434171 -0.900831
vn 0.000000 0.434171 -0.900831
vn -0.900831 0.434171 0.000000
vn -0.900831 0.434171 0.000000
vn -0.900831 0.434171 0.000000
s off
g Obalisk1
usemtl lambert3SG
f 6/1/1 8/2/2 7/3/3 5/4/4 20/5/5 19/6/6
f 5/7/7 7/8/8 1/9/9 3/10/10 17/11/11 20/12/12
f 9/13/13 10/14/14 12/15/15 11/16/16
f 13/17/17 14/18/18 16/19/19 15/20/20
f 15/21/21 16/22/22 10/23/23 9/24/24
f 10/25/25 16/26/26 14/27/27 12/28/28
f 15/29/29 9/30/30 11/31/31 13/32/32
f 2/33/33 1/34/34 11/16/35 12/15/36
f 1/9/37 7/8/38 13/32/39 11/31/40
f 7/3/41 8/2/42 14/18/43 13/17/44
f 8/35/45 2/36/46 12/28/47 14/27/48
f 4/37/49 18/38/50 17/39/51 3/40/52 1/34/53 2/33/54
f 6/41/55 19/42/56 18/43/57 4/44/58 2/36/59 8/35/60
f 17/39/61 18/38/62 21/45/63
f 18/43/64 19/42/65 21/46/66
f 19/6/67 20/5/68 21/47/69
f 20/12/70 17/11/71 21/48/72
