# ###############################
# Obj file written by RoadKill1_1
# RoadKill by Andy Swann
# http://www.pullin-shapes.co.uk/
# ###############################
g RoadKillOut
o RoadKillOut
# 8 Vertex coords
v -2.000000 -12.500000 2.000000
v 2.000000 -12.500000 2.000000
v -2.000000 12.500000 2.000000
v 2.000000 12.500000 2.000000
v -2.000000 12.500000 -2.000000
v 2.000000 12.500000 -2.000000
v -2.000000 -12.500000 -2.000000
v 2.000000 -12.500000 -2.000000

# 24 Normal vectors
vn 0.000000 0.000000 1.000000
vn 0.000000 0.000000 1.000000
vn 0.000000 0.000000 1.000000
vn 0.000000 0.000000 1.000000
vn 0.000000 1.000000 0.000000
vn 0.000000 1.000000 0.000000
vn 0.000000 1.000000 0.000000
vn 0.000000 1.000000 0.000000
vn 0.000000 0.000000 -1.000000
vn 0.000000 0.000000 -1.000000
vn 0.000000 0.000000 -1.000000
vn 0.000000 0.000000 -1.000000
vn 0.000000 -1.000000 0.000000
vn 0.000000 -1.000000 0.000000
vn 0.000000 -1.000000 0.000000
vn 0.000000 -1.000000 0.000000
vn 1.000000 0.000000 0.000000
vn 1.000000 0.000000 0.000000
vn 1.000000 0.000000 0.000000
vn 1.000000 0.000000 0.000000
vn -1.000000 0.000000 0.000000
vn -1.000000 0.000000 0.000000
vn -1.000000 0.000000 0.000000
vn -1.000000 0.000000 0.000000

# 18 texture coords
vt 0.158411 0.000000 0.00
vt 0.316821 0.000000 0.00
vt 0.316821 0.990064 0.00
vt 0.158410 0.990064 0.00
vt 0.958383 0.158410 0.00
vt 0.799972 0.158410 0.00
vt 0.799972 0.000000 0.00
vt 0.958383 0.000000 0.00
vt 0.633642 0.990064 0.00
vt 0.475231 0.990064 0.00
vt 0.475231 0.000000 0.00
vt 0.633642 0.000000 0.00
vt 0.798388 0.000000 0.00
vt 0.798388 0.158410 0.00
vt 0.639978 0.158410 0.00
vt 0.639978 0.000000 0.00
vt 0.000000 0.000000 0.00
vt 0.000000 0.990064 0.00

# 6 Faces
f  1/1/1  2/2/2  4/3/3  3/4/4 
f  3/5/5  4/6/6  6/7/7  5/8/8 
f  5/9/9  6/10/10  8/11/11  7/12/12 
f  7/13/13  8/14/14  2/15/15  1/16/16 
f  2/2/17  8/11/18  6/10/19  4/3/20 
f  7/17/21  1/1/22  3/4/23  5/18/24 
