# ###############################
# Obj file written by RoadKill1_1
# RoadKill by Andy Swann
# http://www.pullin-shapes.co.uk/
# ###############################
g RoadKillOut
o RoadKillOut
# 32 Vertex coords
v 1.007365 6.547897 -1.007365
v 0.000000 6.547897 -1.424629
v -1.007365 6.547897 -1.007365
v -1.424629 6.547897 0.000000
v -1.007365 6.547897 1.007365
v 0.000000 6.547897 1.424629
v 1.007365 6.547897 1.007365
v 1.424629 6.547897 0.000000
v 1.007963 6.745793 -1.007963
v 0.000000 6.745793 -1.425475
v -1.007963 6.745793 -1.007963
v -1.425475 6.745793 0.000000
v -1.007963 6.745793 1.007963
v 0.000000 6.745793 1.425475
v 1.007963 6.745793 1.007963
v 1.425475 6.745793 0.000000
v 0.742462 5.050000 -0.742462
v 0.000000 5.050000 -1.050000
v -0.742462 5.050000 -0.742462
v -1.050000 5.050000 0.000000
v -0.742462 5.050000 0.742462
v 0.000000 5.050000 1.050000
v 0.742462 5.050000 0.742462
v 1.050000 5.050000 0.000000
v 0.707107 5.000000 -0.707107
v 0.000000 5.000000 -1.000000
v -0.707107 5.000000 -0.707107
v -1.000000 5.000000 0.000000
v -0.707107 5.000000 0.707107
v 0.000000 5.000000 1.000000
v 0.707107 5.000000 0.707107
v 1.000000 5.000000 0.000000

# 112 Normal vectors
vn 0.382680 -0.003952 -0.923872
vn 0.382680 -0.003952 -0.923872
vn 0.382680 -0.003952 -0.923872
vn 0.382680 -0.003952 -0.923872
vn -0.382681 -0.003952 -0.923872
vn -0.382681 -0.003952 -0.923872
vn -0.382681 -0.003952 -0.923872
vn -0.382681 -0.003952 -0.923872
vn -0.923872 -0.003952 -0.382681
vn -0.923872 -0.003952 -0.382681
vn -0.923872 -0.003952 -0.382681
vn -0.923872 -0.003952 -0.382681
vn -0.923873 -0.003953 0.382680
vn -0.923873 -0.003953 0.382680
vn -0.923873 -0.003953 0.382680
vn -0.923873 -0.003953 0.382680
vn -0.382680 -0.003952 0.923872
vn -0.382680 -0.003952 0.923872
vn -0.382680 -0.003952 0.923872
vn -0.382680 -0.003952 0.923872
vn 0.382680 -0.003952 0.923873
vn 0.382680 -0.003952 0.923873
vn 0.382680 -0.003952 0.923873
vn 0.382680 -0.003952 0.923873
vn 0.923872 -0.003952 0.382680
vn 0.923872 -0.003952 0.382680
vn 0.923872 -0.003952 0.382680
vn 0.923872 -0.003952 0.382680
vn 0.923872 -0.003953 -0.382681
vn 0.923872 -0.003953 -0.382681
vn 0.923872 -0.003953 -0.382681
vn 0.923872 -0.003953 -0.382681
vn 0.372859 -0.225133 -0.900162
vn 0.372859 -0.225133 -0.900162
vn 0.372859 -0.225133 -0.900162
vn 0.372859 -0.225133 -0.900162
vn -0.372859 -0.225133 -0.900162
vn -0.372859 -0.225133 -0.900162
vn -0.372859 -0.225133 -0.900162
vn -0.372859 -0.225133 -0.900162
vn -0.900162 -0.225133 -0.372859
vn -0.900162 -0.225133 -0.372859
vn -0.900162 -0.225133 -0.372859
vn -0.900162 -0.225133 -0.372859
vn -0.900162 -0.225133 0.372859
vn -0.900162 -0.225133 0.372859
vn -0.900162 -0.225133 0.372859
vn -0.900162 -0.225133 0.372859
vn -0.372859 -0.225133 0.900162
vn -0.372859 -0.225133 0.900162
vn -0.372859 -0.225133 0.900162
vn -0.372859 -0.225133 0.900162
vn 0.372859 -0.225133 0.900162
vn 0.372859 -0.225133 0.900162
vn 0.372859 -0.225133 0.900162
vn 0.372859 -0.225133 0.900162
vn 0.900162 -0.225133 0.372859
vn 0.900162 -0.225133 0.372859
vn 0.900162 -0.225133 0.372859
vn 0.900162 -0.225133 0.372859
vn 0.900162 -0.225133 -0.372859
vn 0.900162 -0.225133 -0.372859
vn 0.900162 -0.225133 -0.372859
vn 0.900162 -0.225133 -0.372859
vn 0.281084 -0.678594 -0.678602
vn 0.281084 -0.678594 -0.678602
vn 0.281084 -0.678594 -0.678602
vn 0.281084 -0.678594 -0.678602
vn -0.281085 -0.678595 -0.678602
vn -0.281085 -0.678595 -0.678602
vn -0.281085 -0.678595 -0.678602
vn -0.281085 -0.678595 -0.678602
vn -0.678600 -0.678597 -0.281086
vn -0.678600 -0.678597 -0.281086
vn -0.678600 -0.678597 -0.281086
vn -0.678600 -0.678597 -0.281086
vn -0.678600 -0.678597 0.281084
vn -0.678600 -0.678597 0.281084
vn -0.678600 -0.678597 0.281084
vn -0.678600 -0.678597 0.281084
vn -0.281084 -0.678594 0.678603
vn -0.281084 -0.678594 0.678603
vn -0.281084 -0.678594 0.678603
vn -0.281084 -0.678594 0.678603
vn 0.281085 -0.678597 0.678599
vn 0.281085 -0.678597 0.678599
vn 0.281085 -0.678597 0.678599
vn 0.281085 -0.678597 0.678599
vn 0.678599 -0.678596 0.281088
vn 0.678599 -0.678596 0.281088
vn 0.678599 -0.678596 0.281088
vn 0.678599 -0.678596 0.281088
vn 0.678600 -0.678597 -0.281084
vn 0.678600 -0.678597 -0.281084
vn 0.678600 -0.678597 -0.281084
vn 0.678600 -0.678597 -0.281084
vn 0.000000 1.000000 0.000000
vn 0.000000 1.000000 0.000000
vn 0.000000 1.000000 0.000000
vn 0.000000 1.000000 0.000000
vn 0.000000 1.000000 0.000000
vn 0.000000 1.000000 0.000000
vn 0.000000 1.000000 0.000000
vn 0.000000 1.000000 0.000000
vn 0.000000 -1.000000 0.000000
vn 0.000000 -1.000000 0.000000
vn 0.000000 -1.000000 0.000000
vn 0.000000 -1.000000 0.000000
vn 0.000000 -1.000000 0.000000
vn 0.000000 -1.000000 0.000000
vn 0.000000 -1.000000 0.000000
vn 0.000000 -1.000000 0.000000

# 62 texture coords
vt 0.645562 0.478357 0.00
vt 0.562482 0.345707 0.00
vt 0.586533 0.330589 0.00
vt 0.669662 0.463317 0.00
vt 0.456308 0.230705 0.00
vt 0.477149 0.211401 0.00
vt 0.583386 0.326471 0.00
vt 0.330702 0.137318 0.00
vt 0.347614 0.114493 0.00
vt 0.473295 0.207936 0.00
vt 0.189995 0.068765 0.00
vt 0.202395 0.043207 0.00
vt 0.343186 0.111800 0.00
vt 0.039038 0.027411 0.00
vt 0.046498 0.000000 0.00
vt 0.197545 0.041379 0.00
vt 0.732130 0.934374 0.00
vt 0.731874 0.777854 0.00
vt 0.760282 0.777761 0.00
vt 0.760538 0.934374 0.00
vt 0.702682 0.624081 0.00
vt 0.730583 0.618737 0.00
vt 0.759792 0.772602 0.00
vt 0.671993 0.467946 0.00
vt 0.729148 0.613757 0.00
vt 0.447607 0.578054 0.00
vt 0.386375 0.480286 0.00
vt 0.308121 0.395526 0.00
vt 0.215545 0.326696 0.00
vt 0.111838 0.276170 0.00
vt 0.000578 0.245690 0.00
vt 0.511411 0.914155 0.00
vt 0.511222 0.798795 0.00
vt 0.489707 0.685458 0.00
vt 0.433356 0.583097 0.00
vt 0.375579 0.491165 0.00
vt 0.373302 0.487877 0.00
vt 0.299523 0.408213 0.00
vt 0.296677 0.405403 0.00
vt 0.209441 0.340754 0.00
vt 0.206125 0.338519 0.00
vt 0.108439 0.291114 0.00
vt 0.104767 0.289531 0.00
vt 0.000000 0.261005 0.00
vt 0.496651 0.910889 0.00
vt 0.496304 0.802308 0.00
vt 0.496113 0.798314 0.00
vt 0.475696 0.691669 0.00
vt 0.474769 0.687779 0.00
vt 0.434986 0.586749 0.00
vt 0.621604 0.177954 0.00
vt 0.754333 0.094825 0.00
vt 0.906967 0.129897 0.00
vt 0.990096 0.262625 0.00
vt 0.955025 0.415259 0.00
vt 0.822296 0.498389 0.00
vt 0.409205 0.688958 0.00
vt 0.317273 0.746735 0.00
vt 0.211412 0.722584 0.00
vt 0.153634 0.630652 0.00
vt 0.177786 0.524791 0.00
vt 0.269718 0.467013 0.00

# 26 Faces
f  1/1/1  2/2/2  10/3/3  9/4/4 
f  2/2/5  3/5/6  11/6/7  10/7/8 
f  3/5/9  4/8/10  12/9/11  11/10/12 
f  4/8/13  5/11/14  13/12/15  12/13/16 
f  5/11/17  6/14/18  14/15/19  13/16/20 
f  6/17/21  7/18/22  15/19/23  14/20/24 
f  7/18/25  8/21/26  16/22/27  15/23/28 
f  8/21/29  1/1/30  9/24/31  16/25/32 
f  17/26/33  18/27/34  2/2/35  1/1/36 
f  18/27/37  19/28/38  3/5/39  2/2/40 
f  19/28/41  20/29/42  4/8/43  3/5/44 
f  20/29/45  21/30/46  5/11/47  4/8/48 
f  21/30/49  22/31/50  6/14/51  5/11/52 
f  22/32/53  23/33/54  7/18/55  6/17/56 
f  23/33/57  24/34/58  8/21/59  7/18/60 
f  24/34/61  17/26/62  1/1/63  8/21/64 
f  18/27/65  17/26/66  25/35/67  26/36/68 
f  19/28/69  18/27/70  26/37/71  27/38/72 
f  20/29/73  19/28/74  27/39/75  28/40/76 
f  21/30/77  20/29/78  28/41/79  29/42/80 
f  22/31/81  21/30/82  29/43/83  30/44/84 
f  23/33/85  22/32/86  30/45/87  31/46/88 
f  24/34/89  23/33/90  31/47/91  32/48/92 
f  17/26/93  24/34/94  32/49/95  25/50/96 
f  10/3/97  11/51/98  12/52/99  13/53/100  14/54/101  15/55/102  16/56/103  9/4/104 
f  25/35/105  32/57/106  31/58/107  30/59/108  29/60/109  28/61/110  27/62/111  26/36/112 
